<svg xmlns="http://www.w3.org/2000/svg" viewBox="0 0 128 128"><rect fill="#164e63" width="128" height="128" rx="12"/><rect x="20" y="24" width="50" height="64" fill="#fff" rx="4"/><rect x="58" y="40" width="50" height="64" fill="#22d3ee" rx="4"/><path fill="#164e63" d="M28 36h16v4H28zM28 44h24v4H28zM28 52h20v4H28zM28 60h22v4H28zM28 68h18v4H28z"/><path fill="#164e63" d="M66 52h16v4H66zM66 60h24v4H66zM66 68h20v4H66zM66 76h22v4H66zM66 84h18v4H66z"/><path fill="#4ade80" d="M86 28l8 8-20 20-10-10 6-6 4 4z"/></svg>
