<svg xmlns="http://www.w3.org/2000/svg" viewBox="0 0 128 128"><rect fill="#0c3644" width="128" height="128" rx="12"/><path fill="#06b6d4" d="M20 32h44c4 0 6 2 6 6v28c0 4-2 6-6 6H40l-14 14V72H20c-4 0-6-2-6-6V38c0-4 2-6 6-6z"/><path fill="#ffffff" stroke="#06b6d4" stroke-width="2" d="M64 52h44c4 0 6 2 6 6v28c0 4-2 6-6 6h-10v14l-14-14H64c-4 0-6-2-6-6V58c0-4 2-6 6-6z"/><line x1="28" y1="46" x2="56" y2="46" stroke="#0c3644" stroke-width="4" stroke-linecap="round"/><line x1="28" y1="58" x2="48" y2="58" stroke="#0c3644" stroke-width="4" stroke-linecap="round"/><line x1="72" y1="68" x2="100" y2="68" stroke="#06b6d4" stroke-width="4" stroke-linecap="round"/><line x1="72" y1="80" x2="92" y2="80" stroke="#06b6d4" stroke-width="4" stroke-linecap="round"/></svg>
